<?xml version="1.0" encoding="UTF-8"?>
<svg id="Layer_1" data-name="Layer 1" xmlns="http://www.w3.org/2000/svg" viewBox="0 0 522.99 303.95">
  <path d="M493.12,125.56l29.86-2.44v-47.55l-11.29-2.42v-3.73l11.29-1.78V0H211.54l-26.89,37.12H53.96L.07,91.02v34.11l31.9,2.02v82.65L.07,212.27v91.68h114.22l6-39.28h166.71l5.77,39.28h102.54l3.67-10.91h7.64l3.37,10.91h57.39l55.61-56.33v-35.14l-29.86-2.43v-84.49ZM214.61,6h302.38v31.12h-91.03l-4.63,25.1h-148.88l-4.63-25.1h-75.75l22.54-31.12ZM516.98,218.02v27.14l-52.11,52.79h-50.46l-3.37-10.91h-16.38l-3.67,10.91h-93.04l-5.77-39.28H115.13l-6,39.28H6.07v-80.13l31.9-2.48v-93.83l-31.9-2.02v-25.99l50.38-50.38h206.38l4.63,25.1h158.87l4.63-25.1h86.03v19.39l-11.29,1.78v13.71l11.29,2.42v37.17l-29.86,2.44v95.55l29.86,2.43Z" fill="#27aae1"/>
  <path d="M120.11,5.65h-25.64l-18.86,25.59h25.64l18.86-25.59ZM83.53,27.24l12.96-17.59h15.7l-12.96,17.59h-15.7Z" fill="#27aae1"/>
  <path d="M138.89,31.24l18.88-25.59h-25.66l-18.86,25.59h25.64ZM134.14,9.65h15.71l-12.98,17.59h-15.7l12.96-17.59Z" fill="#27aae1"/>
  <path d="M176.56,31.24l18.86-25.59h-25.66l-18.86,25.59h25.66ZM171.79,9.65h15.72l-12.96,17.59h-15.72l12.96-17.59Z" fill="#27aae1"/>
  <path d="M500.16,132.02v71.64l22.83,1.82-.06-75.33-22.77,1.87ZM504.16,199.97v-64.26l14.77-1.21.05,66.65-14.82-1.18Z" fill="#27aae1"/>
  <path d="M24.98,133.63l-24.76-1.28-.22,73.02,25.14-1.95-.16-69.79ZM4.01,201.05l.19-64.49,16.78.87.14,62.29-17.11,1.33Z" fill="#27aae1"/>
  <path d="M415.43,55.1l3.3-18.3h-143.93l3.3,18.55,137.32-.25ZM413.94,40.8l-1.86,10.3-130.63.24-1.88-10.55h134.37Z" fill="#27aae1"/>
  <path d="M125.89,271.6l-4.42,32.32h164.21l-5.03-32.78-154.76.46ZM126.05,299.93l3.33-24.33,147.84-.44,3.8,24.77H126.05Z" fill="#27aae1"/>
</svg>